<?xml version="1.0"?>
<svg xmlns="http://www.w3.org/2000/svg" xmlns:xlink="http://www.w3.org/1999/xlink" version="1.1" id="Capa_1" x="0px" y="0px" viewBox="0 0 164.989 164.989" style="enable-background:new 0 0 164.989 164.989;" xml:space="preserve" width="512px" height="512px"><g><path d="M77.432,87.495H0v54.828c0,12.499,10.168,22.667,22.667,22.667h54.765V87.495z M54.667,140.072  c-0.976,0.976-2.256,1.464-3.535,1.464s-2.56-0.488-3.535-1.464l-7.44-7.44l-7.44,7.44c-0.976,0.976-2.256,1.464-3.535,1.464  s-2.56-0.488-3.535-1.464c-1.953-1.953-1.953-5.119,0-7.071l7.439-7.44l-7.439-7.44c-1.953-1.953-1.953-5.119,0-7.071  c1.951-1.952,5.119-1.952,7.07,0l7.44,7.44l7.44-7.44c1.951-1.952,5.119-1.952,7.07,0c1.953,1.953,1.953,5.119,0,7.071l-7.439,7.44  l7.439,7.44C56.62,134.953,56.62,138.119,54.667,140.072z M87.432,87.495v77.494h54.891c12.498,0,22.666-10.168,22.666-22.667  V87.495H87.432z M140.343,116.121l-21.951,21.951c-0.976,0.976-2.256,1.464-3.535,1.464s-2.56-0.488-3.535-1.464  c-1.953-1.953-1.953-5.119,0-7.071l21.951-21.951c1.951-1.952,5.119-1.952,7.07,0C142.296,111.002,142.296,114.168,140.343,116.121z   M87.432,77.495h77.557V22.667C164.989,10.168,154.821,0,142.323,0H87.432V77.495z M110.311,36.974h31.043c2.762,0,5,2.239,5,5  s-2.238,5-5,5h-31.043c-2.762,0-5-2.239-5-5S107.549,36.974,110.311,36.974z M77.432,77.495V0H22.667C10.168,0,0,10.168,0,22.667  v54.828H77.432z M24.635,34.974h10.521V24.453c0-2.761,2.238-5,5-5s5,2.239,5,5v10.521h10.521c2.762,0,5,2.239,5,5s-2.238,5-5,5  H45.156v10.521c0,2.761-2.238,5-5,5s-5-2.239-5-5V44.974H24.635c-2.762,0-5-2.239-5-5S21.873,34.974,24.635,34.974z" data-original="#000000" class="active-path" data-old_color="#000000" fill="#FFFFFF"/></g> </svg>
